<svg xmlns="http://www.w3.org/2000/svg" viewBox="0 0 1800 1200">
  <rect width="1800" height="1200" fill="#1e1e1c"/>
  <rect x="80" y="80" width="800" height="1040" rx="24" fill="#321b16" stroke="#81512a" stroke-width="10"/>
  <rect x="920" y="80" width="800" height="1040" rx="24" fill="#d8d5ca" stroke="#565a5b" stroke-width="10"/>
  <g transform="translate(480 600) scale(0.78)">
    <g fill="#9c6428" stroke="#3a210e" stroke-width="10">
      <path d="M0-448 L28-318 L0-292 L-28-318 Z"/>
      <path d="M0 448 L28 318 L0 292 L-28 318 Z"/>
      <path d="M448 0 L318 28 L292 0 L318-28 Z"/>
      <path d="M-448 0 L-318 28 L-292 0 L-318-28 Z"/>
      <path d="M317-317 L228-220 L188-226 L220-228 Z"/>
      <path d="M317 317 L228 220 L188 226 L220 228 Z"/>
      <path d="M-317 317 L-228 220 L-188 226 L-220 228 Z"/>
      <path d="M-317-317 L-228-220 L-188-226 L-220-228 Z"/>
    </g>
    <circle r="282" fill="#9b6228" stroke="#e0b15a" stroke-width="20"/>
    <circle r="190" fill="none" stroke="#e3bd73" stroke-width="18"/>
    <path d="M92-162 A204 204 0 1 0 92 162 A132 132 0 1 1 92-162 Z" fill="#dfe8e5" stroke="#f0e8d2" stroke-width="9"/>
    <circle r="62" fill="#7a481e" stroke="#f0c56e" stroke-width="16"/>
  </g>
  <g transform="translate(1320 600) scale(0.78)">
    <circle r="326" fill="#c6c8c2" opacity="0.62"/>
    <circle r="236" fill="#101214"/>
    <circle r="262" fill="none" stroke="#efede4" stroke-width="28" opacity="0.82"/>
    <g fill="#d8d8d1" stroke="#333638" stroke-width="12" stroke-linejoin="round">
      <polygon points="-348,-136 -116,-38 -82,18 -386,-20"/>
      <polygon points="-392,28 -78,44 -36,92 -324,126"/>
      <polygon points="-316,164 -14,118 28,154 -236,248"/>
      <polygon points="348,-136 116,-38 82,18 386,-20"/>
      <polygon points="392,28 78,44 36,92 324,126"/>
      <polygon points="316,164 14,118 -28,154 236,248"/>
      <polygon points="-54,-268 0,-70 54,-268 84,-90 0,146 -84,-90"/>
    </g>
    <path d="M-134 140 C-70 94 2 78 104 92" fill="none" stroke="#f5f2e8" stroke-width="48" stroke-linecap="round"/>
    <g stroke="#2f3335" stroke-width="16" opacity="0.78">
      <line x1="-170" y1="122" x2="-88" y2="206"/>
      <line x1="-72" y1="96" x2="-10" y2="196"/>
      <line x1="42" y1="88" x2="112" y2="192"/>
    </g>
  </g>
</svg>
