<svg xmlns="http://www.w3.org/2000/svg" viewBox="0 0 1024 1024">
  <defs>
    <radialGradient id="halo" cx="50%" cy="50%" r="52%">
      <stop offset="0%" stop-color="#f0f0e8" stop-opacity="0.85"/>
      <stop offset="45%" stop-color="#bfc2bd" stop-opacity="0.42"/>
      <stop offset="100%" stop-color="#2d3031" stop-opacity="0"/>
    </radialGradient>
    <linearGradient id="wingWhite" x1="0%" y1="0%" x2="100%" y2="100%">
      <stop offset="0%" stop-color="#f2f0e8"/>
      <stop offset="100%" stop-color="#a7aaa6"/>
    </linearGradient>
  </defs>
  <rect width="1024" height="1024" fill="#d7d4c9"/>
  <g transform="translate(512 512)">
    <circle r="326" fill="url(#halo)"/>
    <circle r="236" fill="#111315"/>
    <circle r="262" fill="none" stroke="#e5e1d6" stroke-width="28" opacity="0.78"/>
    <g fill="url(#wingWhite)" stroke="#323638" stroke-width="12" stroke-linejoin="round">
      <polygon points="-348,-136 -116,-38 -82,18 -386,-20"/>
      <polygon points="-392,28 -78,44 -36,92 -324,126"/>
      <polygon points="-316,164 -14,118 28,154 -236,248"/>
      <polygon points="348,-136 116,-38 82,18 386,-20"/>
      <polygon points="392,28 78,44 36,92 324,126"/>
      <polygon points="316,164 14,118 -28,154 236,248"/>
      <polygon points="-54,-268 0,-70 54,-268 84,-90 0,146 -84,-90"/>
    </g>
    <path d="M-134 140 C-70 94 2 78 104 92" fill="none" stroke="#f5f2e8" stroke-width="48" stroke-linecap="round" opacity="0.9"/>
    <path d="M-112 164 C-42 126 36 116 114 132" fill="none" stroke="#d7d4c9" stroke-width="18" stroke-linecap="round" opacity="0.95"/>
    <g stroke="#2f3335" stroke-width="16" opacity="0.78">
      <line x1="-170" y1="122" x2="-88" y2="206"/>
      <line x1="-72" y1="96" x2="-10" y2="196"/>
      <line x1="42" y1="88" x2="112" y2="192"/>
    </g>
  </g>
</svg>
