<svg xmlns="http://www.w3.org/2000/svg" width="1600" height="900" viewBox="0 0 1600 900">
  <defs>
    <radialGradient id="zSun" cx="50%" cy="50%" r="55%">
      <stop offset="0%" stop-color="#b87828"/>
      <stop offset="72%" stop-color="#a46522"/>
      <stop offset="100%" stop-color="#8a521c"/>
    </radialGradient>
    <radialGradient id="sHalo" cx="50%" cy="50%" r="55%">
      <stop offset="0%" stop-color="#f5f4ea" stop-opacity="0.82"/>
      <stop offset="38%" stop-color="#d8d7cb" stop-opacity="0.7"/>
      <stop offset="75%" stop-color="#777a73" stop-opacity="0.34"/>
      <stop offset="100%" stop-color="#111313" stop-opacity="0"/>
    </radialGradient>
    <filter id="cloth" x="-5%" y="-5%" width="110%" height="110%">
      <feTurbulence type="fractalNoise" baseFrequency="0.018" numOctaves="4" seed="17"/>
      <feColorMatrix type="saturate" values="0"/>
      <feComponentTransfer>
        <feFuncA type="table" tableValues="0 0.18"/>
      </feComponentTransfer>
      <feBlend mode="multiply" in2="SourceGraphic"/>
    </filter>
    <g id="zhaomingEmblem">
      <circle cx="0" cy="0" r="146" fill="url(#zSun)" stroke="#efbd55" stroke-width="14"/>
      <circle cx="0" cy="0" r="105" fill="none" stroke="#efbd55" stroke-width="8"/>
      <g fill="#a96822">
        <polygon points="0,-212 18,-158 -18,-158"/>
        <polygon points="0,212 18,158 -18,158"/>
        <polygon points="212,0 158,18 158,-18"/>
        <polygon points="-212,0 -158,18 -158,-18"/>
        <polygon points="150,-150 113,-99 99,-113"/>
        <polygon points="-150,-150 -113,-99 -99,-113"/>
        <polygon points="150,150 113,99 99,113"/>
        <polygon points="-150,150 -113,99 -99,113"/>
      </g>
      <path d="M-61,-82 C-135,-42 -134,62 -55,91 C-4,110 57,83 82,36 C44,54 -4,45 -30,7 C-55,-29 -42,-61 -2,-84 C-23,-90 -43,-91 -61,-82 Z" fill="#e8f2ef" opacity="0.96"/>
      <circle cx="0" cy="0" r="32" fill="#875019" stroke="#efbd55" stroke-width="8"/>
      <g stroke="#efbd55" stroke-width="6" opacity="0.88">
        <line x1="-8" y1="-104" x2="-22" y2="-33"/>
        <line x1="65" y1="-80" x2="22" y2="-25"/>
        <line x1="102" y1="-7" x2="37" y2="-2"/>
        <line x1="66" y1="78" x2="22" y2="24"/>
        <line x1="-5" y1="103" x2="-14" y2="37"/>
        <line x1="-79" y1="63" x2="-35" y2="17"/>
        <line x1="-101" y1="-10" x2="-38" y2="-8"/>
      </g>
    </g>
    <g id="sumingEmblem">
      <circle cx="0" cy="0" r="178" fill="url(#sHalo)"/>
      <circle cx="0" cy="0" r="118" fill="#0e1112"/>
      <circle cx="0" cy="0" r="132" fill="none" stroke="#eff0e8" stroke-width="17" opacity="0.85"/>
      <g fill="#deded5" stroke="#292d2e" stroke-width="10" stroke-linejoin="round">
        <polygon points="-22,-154 0,-16 22,-154 54,-12 24,98 0,156 -24,98 -54,-12"/>
        <polygon points="-260,-52 -126,-10 -64,58 -255,28"/>
        <polygon points="260,-52 126,-10 64,58 255,28"/>
        <polygon points="-270,48 -88,65 -48,102 -226,116"/>
        <polygon points="270,48 88,65 48,102 226,116"/>
        <polygon points="-238,142 -60,116 -18,146 -184,204"/>
        <polygon points="238,142 60,116 18,146 184,204"/>
      </g>
      <path d="M-85,105 C-50,72 42,61 92,87" fill="none" stroke="#f3f2ea" stroke-width="28" stroke-linecap="round"/>
      <g stroke="#2d3132" stroke-width="12" opacity="0.82">
        <line x1="-52" y1="115" x2="-5" y2="198"/>
        <line x1="4" y1="106" x2="38" y2="190"/>
      </g>
    </g>
  </defs>
  <rect width="1600" height="900" fill="#191917"/>
  <rect x="68" y="55" width="674" height="790" rx="24" fill="#341813" stroke="#865322" stroke-width="12" filter="url(#cloth)"/>
  <path d="M68 55 H742 V760 C612 720 522 825 405 768 C290 713 190 817 68 759 Z" fill="#4b1d17" opacity="0.38"/>
  <g transform="translate(405 414) scale(1.12)">
    <use href="#zhaomingEmblem"/>
  </g>
  <rect x="858" y="55" width="674" height="790" rx="24" fill="#d8d7ca" stroke="#5f6260" stroke-width="12" filter="url(#cloth)"/>
  <path d="M858 55 H1532 V757 C1402 805 1302 714 1195 771 C1085 826 988 722 858 760 Z" fill="#f4f2e6" opacity="0.28"/>
  <g transform="translate(1195 414) scale(1.08)">
    <use href="#sumingEmblem"/>
  </g>
  <line x1="800" y1="40" x2="800" y2="860" stroke="#0e0f0f" stroke-width="16"/>
</svg>
